<svg width="29" height="39" viewBox="0 0 29 39" fill="none" xmlns="http://www.w3.org/2000/svg">
<path d="M27.5093 34.7778H1.93514C1.42691 34.7778 1 34.3737 1 33.8485V1.92929C1 1.42424 1.40658 1 1.93514 1H27.5093C28.0175 1 28.4444 1.40404 28.4444 1.92929V33.8485C28.4444 34.3535 28.0175 34.7778 27.5093 34.7778Z" stroke="#2E3D4D" stroke-width="0.75" stroke-miterlimit="10"/>
<path d="M1 26.3334H28.4444" stroke="#2E3D4D" stroke-width="0.75" stroke-miterlimit="10"/>
<path d="M4.51852 31.9629C4.90717 31.9629 5.22223 31.6479 5.22223 31.2592C5.22223 30.8706 4.90717 30.5555 4.51852 30.5555C4.12988 30.5555 3.81482 30.8706 3.81482 31.2592C3.81482 31.6479 4.12988 31.9629 4.51852 31.9629Z" stroke="#2E3D4D" stroke-width="0.75" stroke-miterlimit="10"/>
<path d="M7.68519 32.6666C8.26816 32.6666 8.74075 32.0365 8.74075 31.2592C8.74075 30.4819 8.26816 29.8518 7.68519 29.8518C7.10223 29.8518 6.62964 30.4819 6.62964 31.2592C6.62964 32.0365 7.10223 32.6666 7.68519 32.6666Z" stroke="#2E3D4D" stroke-width="0.75" stroke-miterlimit="10"/>
<path d="M23.8704 32.6667C24.842 32.6667 25.6296 31.8791 25.6296 30.9075C25.6296 29.9358 24.842 29.1482 23.8704 29.1482C22.8988 29.1482 22.1111 29.9358 22.1111 30.9075C22.1111 31.8791 22.8988 32.6667 23.8704 32.6667Z" stroke="#2E3D4D" stroke-width="0.75" stroke-miterlimit="10"/>
<path d="M10.8519 34.7778V39.0001" stroke="#2E3D4D" stroke-width="0.75" stroke-miterlimit="10"/>
<path d="M15.0741 34.7778V39.0001" stroke="#2E3D4D" stroke-width="0.75" stroke-miterlimit="10"/>
<path d="M18.5926 34.7778V39.0001" stroke="#2E3D4D" stroke-width="0.75" stroke-miterlimit="10"/>
<path d="M13.688 23.5185C12.8563 23.2524 12.2592 22.495 12.2592 21.6147C12.2592 20.5093 14.3704 17.8889 14.3704 17.8889C14.3704 17.8889 16.4815 20.5093 16.4815 21.6147C16.4815 22.495 15.8844 23.2524 15.0527 23.5185C15.3726 23.1705 15.5219 22.7406 15.5219 22.3107C15.5219 21.8399 15.33 21.3691 14.9461 21.0006C14.5623 20.6321 14.3704 20.1612 14.3704 19.6904C14.3704 20.1612 14.1784 20.6321 13.7946 21.0006C13.4108 21.3691 13.2188 21.8399 13.2188 22.3107C13.2188 22.7611 13.3894 23.191 13.688 23.5185Z" stroke="#2E3D4D" stroke-width="0.75" stroke-miterlimit="10" stroke-linecap="round" stroke-linejoin="round"/>
</svg>
