<svg width="15" height="21" viewBox="0 0 15 21" fill="none" xmlns="http://www.w3.org/2000/svg">
<path opacity="0.79" d="M6.71094 13.125L6.79297 15.0254C6.79297 16.1465 6.51042 17.0397 5.94531 17.7051H14.873V21H0.394531V17.7051H1.65234C2.30859 17.541 2.63672 16.7253 2.63672 15.2578L2.56836 13.125H0.353516V9.89844H2.45898L2.36328 6.79492C2.36328 4.95378 2.92383 3.5 4.04492 2.43359C5.17513 1.36719 6.68359 0.833984 8.57031 0.833984C10.5026 0.833984 12.0202 1.34896 13.123 2.37891C14.2259 3.39974 14.7773 4.78516 14.7773 6.53516H10.8535C10.8535 5.76042 10.653 5.16797 10.252 4.75781C9.86003 4.34766 9.29492 4.14258 8.55664 4.14258C7.95508 4.14258 7.45378 4.36589 7.05273 4.8125C6.66081 5.25911 6.46484 5.91992 6.46484 6.79492L6.58789 9.89844H10.8125V13.125H6.71094Z" fill="#585E6D"/>
</svg>
