<svg width="53" height="53" viewBox="0 0 53 53" fill="none" xmlns="http://www.w3.org/2000/svg">
<path d="M26.5 51C40.031 51 51 40.031 51 26.5C51 12.969 40.031 2 26.5 2C12.969 2 2 12.969 2 26.5C2 40.031 12.969 51 26.5 51Z" stroke="#55AC68" stroke-width="2.5" stroke-miterlimit="10"/>
<path d="M26.4999 51C32.6818 51 37.6932 40.031 37.6932 26.5C37.6932 12.969 32.6818 2 26.4999 2C20.318 2 15.3066 12.969 15.3066 26.5C15.3066 40.031 20.318 51 26.4999 51Z" stroke="#55AC68" stroke-width="2.5" stroke-miterlimit="10"/>
<path d="M8.73169 43.3291C13.1934 41.1374 19.5336 39.8067 26.5001 39.8067C33.2317 39.8067 39.4154 41.0591 43.7988 43.0942" stroke="#55AC68" stroke-width="2.5" stroke-miterlimit="10"/>
<path d="M44.3466 9.74921C39.885 11.9409 33.5447 13.2716 26.5783 13.2716C19.8466 13.2716 13.6629 12.0192 9.27954 9.98403" stroke="#55AC68" stroke-width="2.5" stroke-miterlimit="10"/>
<path d="M2.07837 26.5H51.0001" stroke="#55AC68" stroke-width="2.5" stroke-miterlimit="10"/>
<path d="M26.5 2.07825V51" stroke="#55AC68" stroke-width="2.5" stroke-miterlimit="10"/>
</svg>
