<svg width="40" height="30" viewBox="0 0 40 30" fill="none" xmlns="http://www.w3.org/2000/svg">
<path d="M29.818 27.2126H10.7542" stroke="#55AC68" stroke-width="0.75" stroke-miterlimit="10"/>
<path d="M6.86735 27.2128H2.75631C1.92558 27.2128 1.22266 26.528 1.22266 25.6721V2.54067C1.22266 1.70614 1.90428 1 2.75631 1H37.2209C38.0516 1 38.7546 1.68474 38.7546 2.54067V25.6721C38.7546 26.5066 38.0729 27.2128 37.2209 27.2128H33.9406" stroke="#55AC68" stroke-width="0.75" stroke-miterlimit="10"/>
<path d="M35.1805 22.4468H25.6486" stroke="#55AC68" stroke-width="0.75" stroke-miterlimit="10" stroke-linecap="round"/>
<path d="M35.1805 12.3191H25.6486" stroke="#55AC68" stroke-width="0.75" stroke-miterlimit="10" stroke-linecap="round"/>
<path d="M35.1805 7.55322H25.6486" stroke="#55AC68" stroke-width="0.75" stroke-miterlimit="10" stroke-linecap="round"/>
<path d="M35.1805 17.085H25.6486" stroke="#55AC68" stroke-width="0.75" stroke-miterlimit="10" stroke-linecap="round"/>
<path d="M14.6267 17.0851C16.1072 17.0851 17.3075 15.8848 17.3075 14.4042C17.3075 12.9236 16.1072 11.7234 14.6267 11.7234C13.1461 11.7234 11.9458 12.9236 11.9458 14.4042C11.9458 15.8848 13.1461 17.0851 14.6267 17.0851Z" stroke="#55AC68" stroke-width="0.75" stroke-miterlimit="10" stroke-linecap="round"/>
<path d="M14.3291 20.0638C17.6194 20.0638 20.2866 17.3966 20.2866 14.1064C20.2866 10.8162 17.6194 8.14893 14.3291 8.14893C11.0389 8.14893 8.3717 10.8162 8.3717 14.1064C8.3717 17.3966 11.0389 20.0638 14.3291 20.0638Z" stroke="#55AC68" stroke-width="0.75" stroke-miterlimit="10" stroke-linecap="round"/>
<path d="M14.3292 23.0425C19.2645 23.0425 23.2654 19.175 23.2654 14.4042C23.2654 9.63337 19.2645 5.76587 14.3292 5.76587C9.39393 5.76587 5.39307 9.63337 5.39307 14.4042C5.39307 19.175 9.39393 23.0425 14.3292 23.0425Z" stroke="#55AC68" stroke-width="0.75" stroke-miterlimit="10" stroke-linecap="round"/>
<path d="M8.66982 29C9.82139 29 10.7549 28.3332 10.7549 27.5106C10.7549 26.688 9.82139 26.0212 8.66982 26.0212C7.51825 26.0212 6.58472 26.688 6.58472 27.5106C6.58472 28.3332 7.51825 29 8.66982 29Z" stroke="#55AC68" stroke-width="0.75" stroke-miterlimit="10" stroke-linecap="round"/>
<path d="M31.9031 29C33.0547 29 33.9882 28.3332 33.9882 27.5106C33.9882 26.688 33.0547 26.0212 31.9031 26.0212C30.7515 26.0212 29.818 26.688 29.818 27.5106C29.818 28.3332 30.7515 29 31.9031 29Z" stroke="#55AC68" stroke-width="0.75" stroke-miterlimit="10" stroke-linecap="round"/>
</svg>
