<svg width="77" height="75" viewBox="0 0 77 75" fill="none" xmlns="http://www.w3.org/2000/svg">
<path d="M24.1765 47.9817V9.29877C24.1765 4.18445 19.9921 0 14.8778 0C9.76357 0 5.57918 4.18445 5.57918 9.29877V47.9817C2.0457 50.7713 0 55.0487 0 59.5121C0 67.6951 6.69502 74.3902 14.8778 74.3902C23.0606 74.3902 29.7557 67.6951 29.7557 59.5121C29.7557 55.0487 27.7099 50.7713 24.1765 47.9817ZM14.8778 70.6707C8.74072 70.6707 3.71946 65.6493 3.71946 59.5121C3.71946 55.8856 5.4862 52.5381 8.46176 50.3993C8.9267 50.0274 9.29864 49.4695 9.29864 48.9115V40.9146H13.0181C14.0409 40.9146 14.8778 40.0777 14.8778 39.0548C14.8778 38.032 14.0409 37.1951 13.0181 37.1951H9.29864V33.4756H13.0181C14.0409 33.4756 14.8778 32.6387 14.8778 31.6158C14.8778 30.593 14.0409 29.7561 13.0181 29.7561H9.29864V26.0366H13.0181C14.0409 26.0366 14.8778 25.1997 14.8778 24.1768C14.8778 23.1539 14.0409 22.3171 13.0181 22.3171H9.29864V18.5975H13.0181C14.0409 18.5975 14.8778 17.7607 14.8778 16.7378C14.8778 15.7149 14.0409 14.878 13.0181 14.878H9.29864V9.29877C9.29864 6.23018 11.8093 3.71951 14.8778 3.71951C17.9464 3.71951 20.457 6.23018 20.457 9.29877V48.9115C20.457 49.5625 20.736 50.1204 21.2939 50.3993C24.2695 52.4451 26.0362 55.8856 26.0362 59.5121C26.0362 65.6493 21.0149 70.6707 14.8778 70.6707Z" fill="#55AC68"/>
<path d="M76.0629 37.4741L72.6224 35.5214L75.5049 34.1266C75.8769 33.9406 76.1558 33.6616 76.2488 33.3827C76.5278 32.8248 76.6208 32.1738 76.3418 31.6159C75.8769 30.686 74.761 30.3141 73.8312 30.779L68.7169 33.2897L59.5113 27.8964L68.7169 22.5961L73.8312 25.1068C74.761 25.5717 75.8769 25.1998 76.3418 24.2699C76.8067 23.34 76.4348 22.2242 75.5049 21.7592L72.6224 20.3644L76.0629 18.4117C76.9927 17.8537 77.2717 16.7379 76.7138 15.901C76.1558 14.9711 75.04 14.6922 74.2031 15.2501L70.7626 17.2028L70.9486 13.9483C71.0416 12.9254 70.2047 11.9955 69.1819 11.9955C68.159 11.9025 67.2291 12.7394 67.2291 13.7623L66.8572 19.4345L57.6515 24.6418V14.0412L62.3939 10.8797C63.2307 10.3217 63.5097 9.11289 62.9518 8.276C62.3009 7.43911 61.185 7.16015 60.3482 7.71808L57.6515 9.57783V5.57936C57.6515 4.55649 56.8147 3.7196 55.7918 3.7196C54.769 3.7196 53.9321 4.55649 53.9321 5.57936V9.57783L51.2355 7.81106C50.3986 7.25314 49.1898 7.43911 48.6319 8.36899C48.0739 9.20588 48.2599 10.4147 49.1898 10.9726L53.9321 14.1342V24.8278L44.7264 19.5275L44.3545 13.8553C44.2615 12.8324 43.4246 12.0885 42.4018 12.0885C41.3789 12.1815 40.635 13.0184 40.635 14.0412L40.821 17.2958L37.3805 15.3431C36.4506 14.7851 35.3348 15.1571 34.8699 15.994C34.312 16.9239 34.6839 18.0397 35.5208 18.5047L38.9613 20.4574L36.0787 21.8522C35.1488 22.3171 34.7769 23.433 35.2418 24.3629C35.7068 25.2928 36.8226 25.6647 37.7525 25.1998L42.8667 22.6891L52.0724 27.8964L42.8667 33.1967L37.7525 30.686C36.8226 30.2211 35.7068 30.5931 35.2418 31.5229C34.9629 32.0809 34.9629 32.7318 35.3348 33.2897C35.5208 33.5687 35.7997 33.8476 36.0787 34.0336L38.9613 35.4284L35.5208 37.3812C34.5909 37.9391 34.312 39.0549 34.8699 39.8918C35.4278 40.8217 36.5436 41.1007 37.3805 40.5427L40.821 38.59L40.635 41.8446C40.542 42.8674 41.3789 43.7973 42.4018 43.7973C43.4246 43.8903 44.3545 43.0534 44.3545 42.0305L44.7264 36.3583L53.9321 31.058V41.7516L49.1898 44.9132C48.3529 45.4711 48.0739 46.6799 48.6319 47.5168C49.1898 48.3537 50.3056 48.6327 51.2355 48.0747L53.9321 46.308V50.2135C53.9321 51.2363 54.769 52.0732 55.7918 52.0732C56.8147 52.0732 57.6515 51.2363 57.6515 50.2135V46.215L60.3482 47.9818C60.6271 48.1677 60.9991 48.2607 61.371 48.2607C61.9289 48.2607 62.5798 47.9818 62.9518 47.4238C63.5097 46.5869 63.3237 45.3781 62.3939 44.8202L57.6515 41.7516V31.151L66.8572 36.4513L67.2291 42.1235C67.3221 43.1464 68.159 43.8903 69.1819 43.8903C70.2047 43.7973 70.9486 42.9604 70.9486 41.9376L70.7626 38.683L74.2031 40.6357C75.133 41.1937 76.2488 40.8217 76.7138 39.9848C77.2717 39.0549 76.8997 37.9391 76.0629 37.4741Z" fill="#55AC68"/>
</svg>
