<svg width="44" height="30" viewBox="0 0 44 30" fill="none" xmlns="http://www.w3.org/2000/svg">
<path d="M9.14435 28.9221L42.991 9.45858L43.2227 5.51931L42.0449 3.79224L6.92395 24.2842L9.14435 28.9221Z" stroke="#2E3D4D" stroke-width="0.75" stroke-miterlimit="10"/>
<path d="M9.15771 28.9221H43.2226" stroke="#2E3D4D" stroke-width="0.75" stroke-miterlimit="10"/>
<path d="M43.2227 9.37659V28.922" stroke="#2E3D4D" stroke-width="0.75" stroke-miterlimit="10"/>
<path d="M30.937 10.2523L28.467 11.6104L27.0279 8.54551L29.7895 7.70129L30.937 10.2523Z" stroke="#2E3D4D" stroke-width="0.75" stroke-miterlimit="10"/>
<path d="M10.833 13.2857L29.8201 7.70129" stroke="#2E3D4D" stroke-width="0.75" stroke-miterlimit="10"/>
<path d="M42.1058 3.56304L39.6481 4.90909L38.1967 1.82976L40.9447 1L42.1058 3.56304Z" stroke="#2E3D4D" stroke-width="0.75" stroke-miterlimit="10"/>
<path d="M22.0019 7.14286L40.9889 1" stroke="#2E3D4D" stroke-width="0.75" stroke-miterlimit="10"/>
<path d="M19.7681 16.4072L17.3104 17.7532L15.859 14.6923L18.607 13.8441L19.7681 16.4072Z" stroke="#2E3D4D" stroke-width="0.75" stroke-miterlimit="10"/>
<path d="M0.222656 19.4285L18.6512 13.8441" stroke="#2E3D4D" stroke-width="0.75" stroke-miterlimit="10"/>
<path d="M3.01486 18.8701L6.92395 23.8961" stroke="#2E3D4D" stroke-width="0.75" stroke-miterlimit="10"/>
<path d="M6.36551 17.7533L9.71616 22.7793" stroke="#2E3D4D" stroke-width="0.75" stroke-miterlimit="10"/>
</svg>
