<svg width="44" height="30" viewBox="0 0 44 30" fill="none" xmlns="http://www.w3.org/2000/svg">
<path d="M9.14435 28.9221L42.991 9.45858L43.2227 5.51931L42.0449 3.79224L6.92395 24.2842L9.14435 28.9221Z" stroke="#55AC68" stroke-width="0.75" stroke-miterlimit="10"/>
<path d="M9.15771 28.9221H43.2226" stroke="#55AC68" stroke-width="0.75" stroke-miterlimit="10"/>
<path d="M43.2227 9.37671V28.9222" stroke="#55AC68" stroke-width="0.75" stroke-miterlimit="10"/>
<path d="M30.9369 10.2524L28.467 11.6105L27.0278 8.54563L29.7895 7.70142L30.9369 10.2524Z" stroke="#55AC68" stroke-width="0.75" stroke-miterlimit="10"/>
<path d="M10.833 13.2858L29.82 7.70142" stroke="#55AC68" stroke-width="0.75" stroke-miterlimit="10"/>
<path d="M42.1057 3.56304L39.648 4.90909L38.1967 1.82976L40.9446 1L42.1057 3.56304Z" stroke="#55AC68" stroke-width="0.75" stroke-miterlimit="10"/>
<path d="M22.0019 7.14286L40.9889 1" stroke="#55AC68" stroke-width="0.75" stroke-miterlimit="10"/>
<path d="M19.7681 16.4073L17.3104 17.7533L15.859 14.6924L18.607 13.8442L19.7681 16.4073Z" stroke="#55AC68" stroke-width="0.75" stroke-miterlimit="10"/>
<path d="M0.222656 19.4287L18.6512 13.8442" stroke="#55AC68" stroke-width="0.75" stroke-miterlimit="10"/>
<path d="M3.01489 18.8701L6.92398 23.8961" stroke="#55AC68" stroke-width="0.75" stroke-miterlimit="10"/>
<path d="M6.36548 17.7532L9.71613 22.7791" stroke="#55AC68" stroke-width="0.75" stroke-miterlimit="10"/>
</svg>
