<svg width="14" height="21" viewBox="0 0 14 21" fill="none" xmlns="http://www.w3.org/2000/svg">
<g opacity="0.8" clip-path="url(#clip0)">
<path d="M7 0C3.13542 0 0 2.94497 0 6.57481C0 10.2046 3.13542 13.1496 7 13.1496C10.8646 13.1496 14 10.2046 14 6.57481C14 2.94497 10.8646 0 7 0ZM7 9.2715C5.41406 9.2715 4.12435 8.06441 4.12435 6.57053C4.12435 5.07664 5.4095 3.86955 7 3.86955C8.5905 3.86955 9.87565 5.07664 9.87565 6.57053C9.87565 8.06441 8.58594 9.2715 7 9.2715Z" fill="#585E6D"/>
<path d="M7.0002 21L13.3531 9.33575H0.647339L7.0002 21Z" fill="#585E6D"/>
</g>
<defs>
<clipPath id="clip0">
<rect width="14" height="21" fill="white"/>
</clipPath>
</defs>
</svg>
