<svg width="48" height="49" viewBox="0 0 48 49" fill="none" xmlns="http://www.w3.org/2000/svg">
<path d="M48 48.0566C44.504 48.0566 41.0081 48.0566 37.5121 48.0566C37.5898 48.0566 37.6675 47.9789 37.7452 47.9789C40.542 47.6682 42.9503 46.4252 45.2032 44.716C46.2132 43.9392 46.9901 43.0069 47.2231 41.7639C47.2231 41.7639 47.2231 41.7639 47.2231 41.6862C47.8446 38.9671 46.6793 36.1704 44.271 34.8497C42.7949 33.9951 41.3965 33.1405 39.9204 32.3636C37.5898 31.0429 34.7154 31.5091 32.9285 33.529C32.7732 33.6843 32.6955 33.8397 32.5401 33.9174C32.3847 34.0728 32.2293 34.2282 32.074 34.4612C30.5979 36.0927 28.1896 36.4811 26.325 35.3935C26.2474 35.3158 26.1697 35.3158 26.0143 35.2381C21.8191 32.8298 18.0901 29.7999 15.2934 25.8379C13.895 23.818 12.652 21.6427 11.409 19.4674C10.9428 18.6906 11.1759 17.9137 11.7974 17.3699C12.5743 16.593 13.5065 15.8938 14.2834 15.1169C15.138 14.34 15.9925 13.6408 16.6917 12.864C17.4686 12.0094 17.4686 11.3879 16.9248 10.3779C16.8471 10.1449 16.6917 9.9895 16.5364 9.75644C15.5264 7.96961 14.4388 6.26048 13.4288 4.47365C12.7296 3.30833 12.1081 2.06533 11.409 0.900007C11.0205 0.123127 10.3213 -0.109937 9.46675 0.0454389C8.84525 0.123127 8.22375 0.200815 7.60224 0.356191C5.81542 0.744631 4.57241 1.13307 3.01865 2.91989C2.39715 3.61909 1.85333 4.55134 1.3872 5.4836C-0.166557 8.74649 -0.399621 12.4755 0.610323 15.9715C1.3872 18.8459 2.55252 21.565 3.79553 24.2064C5.73773 28.1685 8.5345 31.4314 11.4866 34.6166C17.3909 41.0647 24.5382 45.4152 33.0062 47.5905C33.6277 47.7459 34.3269 47.9012 34.9484 48.0566" fill="#55AC68"/>
</svg>
