<svg width="34" height="34" viewBox="0 0 34 34" fill="none" xmlns="http://www.w3.org/2000/svg">
<path d="M0.00189958 8.11821C0.0771132 5.52752 1.10503 3.32126 2.82659 1.43256C3.15251 1.08157 3.62051 0.780712 4.08015 0.646999C5.00778 0.371216 5.96884 0.204074 6.92155 0.0202189C7.43969 -0.0717088 7.84918 0.153932 8.10825 0.613571C8.5846 1.44928 9.04424 2.29334 9.52895 3.12069C10.256 4.36589 10.9998 5.6111 11.7352 6.8563C11.8104 6.99001 11.9024 7.11537 11.9692 7.24908C12.3536 7.95943 12.3536 8.40236 11.8021 9.00406C11.2756 9.57234 10.6739 10.0738 10.0972 10.6003C9.51224 11.1351 8.90217 11.6449 8.32554 12.1797C7.89097 12.5892 7.76561 13.1074 8.07482 13.6255C8.9356 15.088 9.76295 16.5756 10.724 17.9628C12.596 20.6538 15.053 22.7347 17.8777 24.3894C18.588 24.8073 19.3067 25.2001 20.0254 25.5761C20.5436 25.8519 21.0366 25.76 21.4378 25.3421C21.9643 24.7906 22.4657 24.2056 22.9755 23.6373C23.4602 23.0941 23.9031 22.5258 24.4212 22.0244C25.2068 21.2639 25.6832 21.2555 26.6192 21.8071C28.2738 22.7849 29.9285 23.7543 31.5832 24.7153C32.0847 25.0078 32.5945 25.292 33.0959 25.5928C33.4719 25.8185 33.6391 26.1611 33.614 26.6124C33.5472 27.774 33.2881 28.9022 32.8284 29.9636C32.6947 30.2728 32.4691 30.5736 32.2184 30.7993C30.2378 32.5793 27.9563 33.6658 25.2402 33.6323C24.0619 33.6156 22.9253 33.3148 21.8222 32.922C20.694 32.5208 19.5741 32.1113 18.4543 31.6851C16.34 30.8745 14.4346 29.7129 12.6629 28.3256C9.95516 26.2029 7.56504 23.7626 5.39221 21.0967C3.0188 18.155 1.67331 14.7287 0.528395 11.1936C0.202469 10.1991 -0.0231716 9.17956 0.00189958 8.11821Z" fill="#036C15"/>
</svg>
