<svg width="81" height="66" viewBox="0 0 81 66" fill="none" xmlns="http://www.w3.org/2000/svg">
<path d="M78.9813 29.8401C78.2379 29.8401 77.6273 30.4507 77.6273 31.1941C77.6273 31.5392 77.6007 31.8843 77.5742 32.2294C77.468 32.9728 77.999 33.663 78.7423 33.7427C78.7954 33.7427 78.8485 33.7427 78.9282 33.7427C79.5919 33.7427 80.1759 33.2383 80.2821 32.548C80.3352 32.0967 80.3618 31.6188 80.3618 31.1675C80.3352 30.4507 79.7246 29.8401 78.9813 29.8401Z" fill="#55AC68"/>
<path d="M78.1052 35.3624C77.4945 34.9376 76.645 35.0969 76.2202 35.7075C74.999 37.5128 73.0875 38.6809 70.9902 39.0526C70.9902 38.7605 71.0167 38.4685 71.0167 38.203V33.5305C71.0167 22.1413 62.3089 12.6901 51.2117 11.522C51.5568 10.5928 51.7427 9.58394 51.7427 8.52201C51.7427 3.82296 47.9197 0 43.2207 0C38.5216 0 34.6987 3.82296 34.6987 8.52201C34.6987 9.53084 34.8845 10.4866 35.2031 11.3892H30.1854C26.628 7.38043 20.867 4.38047 16.5662 2.54864C16.1414 2.3628 15.6635 2.4159 15.2918 2.65483C14.9202 2.89377 14.6812 3.31854 14.6812 3.79641V17.4953C12.2919 19.7519 10.4335 22.513 9.26536 25.5395C4.14154 25.6191 0 29.8138 0 34.9641V36.7694C0 41.8932 4.14154 46.0879 9.23881 46.1941C11.6282 52.3002 16.5927 57.0523 22.7785 59.1762V64.008C22.7785 64.7513 23.3891 65.362 24.1324 65.362H34.2739C35.0172 65.362 35.6278 64.7513 35.6278 64.008V60.3443H43.0614V64.008C43.0614 64.7513 43.672 65.362 44.4153 65.362H54.5568C55.3001 65.362 55.9108 64.7513 55.9108 64.008V59.1762C60.0257 57.7691 63.7425 55.1143 66.3973 51.6365C68.6274 48.7162 70.061 45.3976 70.6451 41.8667C73.7512 41.5481 76.5919 39.9021 78.3972 37.2738C78.875 36.6101 78.7158 35.7871 78.1052 35.3624ZM43.2472 2.73448C46.433 2.73448 49.0347 5.33621 49.0347 8.52201C49.0347 11.7078 46.433 14.3095 43.2472 14.3095C40.0614 14.3095 37.4597 11.7078 37.4597 8.52201C37.4331 5.33621 40.0349 2.73448 43.2472 2.73448ZM54.2117 56.8399C53.6276 56.9992 53.2294 57.5302 53.2294 58.1408V62.6275H45.7958V58.9638C45.7958 58.2205 45.1852 57.6098 44.4419 57.6098H34.3004C33.5571 57.6098 32.9465 58.2205 32.9465 58.9638V62.6275H25.5129V58.1408C25.5129 57.5302 25.1147 56.9992 24.5306 56.8399C18.398 55.0878 13.5396 50.4153 11.4954 44.3888C11.3096 43.8313 10.8052 43.4596 10.2211 43.4596H9.4512C5.76098 43.4596 2.76102 40.4596 2.76102 36.7694V34.9641C2.76102 31.2739 5.76098 28.274 9.4512 28.274H10.2211C10.8052 28.274 11.3096 27.9023 11.4954 27.3448C12.5574 24.1855 14.4423 21.3448 16.9378 19.0882C17.2299 18.8228 17.3891 18.4776 17.3891 18.0794V5.86718C22.4068 8.20343 26.3359 10.9379 28.5394 13.6193C28.8049 13.9379 29.2031 14.1237 29.6014 14.1237H29.6279C29.7076 14.1237 29.7872 14.1237 29.8669 14.1237H36.8225C38.3889 15.929 40.672 17.044 43.2472 17.044C45.7958 17.044 48.079 15.9024 49.6454 14.1237C59.9992 14.5219 68.2823 23.097 68.2823 33.5305V38.203C68.2823 46.7781 62.5213 54.4506 54.2117 56.8399Z" fill="#55AC68"/>
<path d="M18.5571 28.5129C20.038 28.5129 21.2385 27.3124 21.2385 25.8315C21.2385 24.3506 20.038 23.1501 18.5571 23.1501C17.0762 23.1501 15.8757 24.3506 15.8757 25.8315C15.8757 27.3124 17.0762 28.5129 18.5571 28.5129Z" fill="#55AC68"/>
<path d="M51.7161 19.1143C51.7161 18.371 51.1055 17.7604 50.3622 17.7604H36.1323C35.3889 17.7604 34.7783 18.371 34.7783 19.1143C34.7783 19.8577 35.3889 20.4683 36.1323 20.4683H50.3622C51.1055 20.4683 51.7161 19.8577 51.7161 19.1143Z" fill="#55AC68"/>
<path d="M61.2469 36.8228C60.5035 36.8228 59.8929 37.4334 59.8929 38.1767C59.8929 38.6811 59.8664 39.159 59.7867 39.6634C59.6805 40.4068 60.2115 41.097 60.9549 41.2032C61.0079 41.2032 61.0876 41.2032 61.1407 41.2032C61.8044 41.2032 62.3885 40.6988 62.4947 40.0351C62.5743 39.4245 62.6274 38.7873 62.6274 38.1767C62.6008 37.4334 61.9902 36.8228 61.2469 36.8228Z" fill="#55AC68"/>
<path d="M60.2381 43.2471C59.601 42.8754 58.7514 43.0878 58.3798 43.725C56.9196 46.194 54.6365 47.9992 51.902 48.7691C51.1852 48.9815 50.7604 49.7249 50.9728 50.4417C51.1321 51.0258 51.6896 51.424 52.2736 51.424C52.4064 51.424 52.5126 51.3974 52.6453 51.3709C56.0435 50.3886 58.9107 48.1585 60.716 45.0789C61.0877 44.4418 60.8753 43.6188 60.2381 43.2471Z" fill="#55AC68"/>
</svg>
