<svg width="81" height="66" viewBox="0 0 81 66" fill="none" xmlns="http://www.w3.org/2000/svg">
<path d="M47.049 7.34919L47.2474 58.5191C47.2474 62.6521 42.683 65.4074 38.9124 63.2425L12.9149 45.333V47.1043H4.77835C3.19072 47.1043 2 45.9235 2 44.349V24.2746C2 22.7002 3.19072 21.5193 4.77835 21.5193H12.9149V23.2906L38.5155 3.01942C42.0876 0.460927 47.049 3.01942 47.049 7.34919ZM76.2217 31.1629H54.9871C53.3995 31.1629 52.2088 32.3437 52.2088 33.9182C52.2088 35.4927 53.3995 36.6735 54.9871 36.6735H76.2217C77.8093 36.6735 79 35.4927 79 33.9182C79 32.3437 77.8093 31.1629 76.2217 31.1629Z" stroke="#55AC68" stroke-width="3" stroke-miterlimit="10"/>
</svg>
