<svg width="110" height="72" viewBox="0 0 110 72" fill="none" xmlns="http://www.w3.org/2000/svg">
<path d="M17.6184 60.541H14.0615L12.283 66.6909L10.1722 60.541H7.44628L5.31877 66.6744L3.55693 60.541H0L3.57355 71.8186H6.78144L8.80922 65.3719L10.837 71.8186H14.0283L17.6184 60.541Z" fill="#273B61"/>
<path d="M24.5449 70.1534L25.1433 71.7527H28.7002L24.013 60.4751H20.7387L16.0515 71.7527H19.6251L20.2068 70.1534H24.5449ZM23.5477 67.4494H21.2041L22.3675 64.2672L23.5477 67.4494Z" fill="#273B61"/>
<path d="M36.669 71.7527H40.4753L38.0486 67.8781C39.1123 67.1196 39.6941 65.9655 39.6941 64.6135C39.6941 62.0414 37.8159 60.541 34.7576 60.541H29.6383V71.7527H32.9791V68.8014H34.8906L36.669 71.7527ZM32.9791 65.8665V63.3604H34.7243C35.6385 63.3604 36.32 63.8386 36.32 64.5805C36.32 65.3554 35.6385 65.8665 34.7243 65.8665H32.9791Z" fill="#273B61"/>
<path d="M44.601 63.3274H50.0361V60.541H41.2601V71.7527H50.0361V68.9663H44.601V67.4988H49.2549V64.8278H44.601V63.3274Z" fill="#273B61"/>
<path d="M62.076 60.541H58.7186V64.8608H54.7295V60.541H51.3886V71.7527H54.7295V67.7626H58.7186V71.7527H62.076V60.541Z" fill="#273B61"/>
<path d="M69.5749 60.2937C66.0014 60.2937 63.4749 62.8328 63.4749 66.1468C63.4749 69.4609 66.0014 72 69.5749 72C73.1485 72 75.6749 69.4609 75.6749 66.1468C75.6749 62.8328 73.1485 60.2937 69.5749 60.2937ZM69.5749 68.8838C67.9959 68.8838 66.8823 67.6143 66.8823 66.1468C66.8823 64.6794 67.9959 63.4099 69.5749 63.4099C71.1539 63.4099 72.2675 64.6794 72.2675 66.1468C72.2675 67.6143 71.1539 68.8838 69.5749 68.8838Z" fill="#273B61"/>
<path d="M87.7556 60.541H84.3649V66.4436C84.3649 67.977 83.5837 68.9003 82.3039 68.9003C81.024 68.9003 80.2429 67.977 80.2429 66.4436V60.541H76.8521V66.3282C76.8521 70.005 78.8799 72 82.3039 72C85.7278 72 87.7556 70.005 87.7556 66.3282V60.541Z" fill="#273B61"/>
<path d="M93.8816 60.2937C91.1391 60.2937 89.2276 61.6787 89.2276 64.0529C89.2276 65.8501 90.308 66.7569 92.5352 67.268L94.4301 67.7132C95.178 67.8781 95.311 68.1913 95.311 68.5046C95.311 68.9662 94.8622 69.2795 94.0976 69.2795C93.0173 69.2795 92.3524 68.7519 92.1862 67.9275H88.7622C89.1113 71.0602 91.7707 72 94.0478 72C97.0728 72 99.0009 70.582 99.0009 68.2573C99.0009 66.2458 97.6047 65.3884 95.6933 64.9268L93.8317 64.4816C93.1336 64.3167 92.8012 64.1189 92.8012 63.6242C92.8012 63.1131 93.2832 62.7998 94.0145 62.7998C94.9952 62.7998 95.3775 63.4429 95.5271 64.1024H98.9012C98.602 60.9202 95.66 60.2937 93.8816 60.2937Z" fill="#273B61"/>
<path d="M103.7 63.3274H109.135V60.541H100.359V71.7527H109.135V68.9663H103.7V67.4988H108.354V64.8278H103.7V63.3274Z" fill="#273B61"/>
<path d="M48.6585 2.88536V0H38.586V2.88536H41.9435V11.2117H45.301V2.88536H48.6585Z" fill="#273B61"/>
<path d="M60.4367 0H57.0792V4.31979H53.0901V0H49.7492V11.2117H53.0901V7.22164H57.0792V11.2117H60.4367V0Z" fill="#273B61"/>
<path d="M65.4423 2.78643H70.8775V0H62.1015V11.2117H70.8775V8.42525H65.4423V6.95784H70.0963V4.28682H65.4423V2.78643Z" fill="#273B61"/>
</svg>
