<svg width="77" height="77" viewBox="0 0 77 77" fill="none" xmlns="http://www.w3.org/2000/svg">
<path d="M68.9791 75.3958H8.02079C4.49163 75.3958 1.60413 72.5083 1.60413 68.9791V17.6458V20.8541C1.60413 24.3833 4.49163 27.2708 8.02079 27.2708H68.9791C72.5083 27.2708 75.3958 30.1583 75.3958 33.6874V68.9791C75.3958 72.5083 72.5083 75.3958 68.9791 75.3958Z" stroke="#55AC68" stroke-width="3" stroke-miterlimit="10" stroke-linejoin="round"/>
<path d="M1.60413 35.2916V8.02079C1.60413 4.49163 4.49163 1.60413 8.02079 1.60413H68.9791C72.5083 1.60413 75.3958 4.49163 75.3958 8.02079V35.2916" stroke="#55AC68" stroke-width="3" stroke-miterlimit="10" stroke-linejoin="round"/>
<path d="M75.3958 60.9583H64.1666C61.4395 60.9583 59.3541 58.8728 59.3541 56.1458V46.5208C59.3541 43.7937 61.4395 41.7083 64.1666 41.7083H75.3958V60.9583Z" stroke="#55AC68" stroke-width="3" stroke-miterlimit="10" stroke-linejoin="round"/>
<path d="M65.7708 46.5208V56.1458" stroke="#55AC68" stroke-width="3" stroke-miterlimit="10" stroke-linejoin="round"/>
<path d="M46.5208 8.02075H57.7499" stroke="#55AC68" stroke-width="3" stroke-miterlimit="10" stroke-linejoin="round"/>
<path d="M9.625 8.02075H43.3125" stroke="#55AC68" stroke-width="3" stroke-miterlimit="10" stroke-linejoin="round"/>
<path d="M38.5 14.4375H70.5833" stroke="#55AC68" stroke-width="3" stroke-miterlimit="10" stroke-linejoin="round"/>
<path d="M22.4583 14.4375H35.2916" stroke="#55AC68" stroke-width="3" stroke-miterlimit="10" stroke-linejoin="round"/>
<path d="M19.25 20.8541H60.9583" stroke="#55AC68" stroke-width="3" stroke-miterlimit="10" stroke-linejoin="round"/>
<path d="M6.41663 20.8541H16.0416" stroke="#55AC68" stroke-width="3" stroke-miterlimit="10" stroke-linejoin="round"/>
<path d="M8.02075 35.2916H11.2291" stroke="#55AC68" stroke-width="3" stroke-miterlimit="10" stroke-linejoin="round"/>
<path d="M16.0416 35.2916H19.25" stroke="#55AC68" stroke-width="3" stroke-miterlimit="10" stroke-linejoin="round"/>
<path d="M24.0625 35.2916H27.2708" stroke="#55AC68" stroke-width="3" stroke-miterlimit="10" stroke-linejoin="round"/>
<path d="M32.0833 35.2916H35.2916" stroke="#55AC68" stroke-width="3" stroke-miterlimit="10" stroke-linejoin="round"/>
<path d="M40.1041 35.2916H43.3125" stroke="#55AC68" stroke-width="3" stroke-miterlimit="10" stroke-linejoin="round"/>
<path d="M48.125 35.2916H51.3333" stroke="#55AC68" stroke-width="3" stroke-miterlimit="10" stroke-linejoin="round"/>
<path d="M56.1458 35.2916H59.3541" stroke="#55AC68" stroke-width="3" stroke-miterlimit="10" stroke-linejoin="round"/>
<path d="M64.1666 35.2916H67.375" stroke="#55AC68" stroke-width="3" stroke-miterlimit="10" stroke-linejoin="round"/>
<path d="M8.02075 67.375H11.2291" stroke="#55AC68" stroke-width="3" stroke-miterlimit="10" stroke-linejoin="round"/>
<path d="M16.0416 67.375H19.25" stroke="#55AC68" stroke-width="3" stroke-miterlimit="10" stroke-linejoin="round"/>
<path d="M24.0625 67.375H27.2708" stroke="#55AC68" stroke-width="3" stroke-miterlimit="10" stroke-linejoin="round"/>
<path d="M32.0833 67.375H35.2916" stroke="#55AC68" stroke-width="3" stroke-miterlimit="10" stroke-linejoin="round"/>
<path d="M40.1041 67.375H43.3125" stroke="#55AC68" stroke-width="3" stroke-miterlimit="10" stroke-linejoin="round"/>
<path d="M48.125 67.375H51.3333" stroke="#55AC68" stroke-width="3" stroke-miterlimit="10" stroke-linejoin="round"/>
<path d="M56.1458 67.375H59.3541" stroke="#55AC68" stroke-width="3" stroke-miterlimit="10" stroke-linejoin="round"/>
<path d="M64.1666 67.375H67.375" stroke="#55AC68" stroke-width="3" stroke-miterlimit="10" stroke-linejoin="round"/>
</svg>
